<?xml version="1.0" encoding="iso-8859-1"?>
<!-- Uploaded to: SVG Repo, www.svgrepo.com, Generator: SVG Repo Mixer Tools -->
<svg version="1.1" id="Layer_1" xmlns="http://www.w3.org/2000/svg" xmlns:xlink="http://www.w3.org/1999/xlink" 
	 viewBox="0 0 512 512" xml:space="preserve">
<polygon style="fill:#FF6243;" points="293.022,512 48.674,512 2.071,149.101 252.588,149.101 "/>
<g>
	<polygon style="opacity:0.4;fill:#891C00;enable-background:new    ;" points="96.017,149.101 121.763,512 82.46,512 
		35.857,149.101 	"/>
	<polygon style="opacity:0.4;fill:#891C00;enable-background:new    ;" points="245.677,512 263.735,371.373 317.562,511.941 	"/>
	<polygon style="opacity:0.4;fill:#891C00;enable-background:new    ;" points="232.12,149.101 206.374,512 164.012,512 
		164.012,149.101 	"/>
</g>
<path style="fill:#FFE477;" d="M18.744,148.987c0,0-16.164-8.864-6.257-21.378s17.207-5.736,19.814-22.421
	c0,0-1.412-11.498,7.144-21.822C50.315,70.252,60.978,72.34,60.978,72.34c15.642-15.642,19.292-44.32,44.32-40.67
	s27.113,4.697,35.456-13.035c8.343-17.732,26.185-27.113,47.245-8.343s4.896,35.456,18.453,36.499
	c13.557,1.043,23.985-15.642,41.192-5.214s32.849,17.728,18.771,27.113c-14.078,9.385,2.086,21.899,14.6,19.814
	c12.514-2.086,6.257,34.413,19.292,33.892c13.035-0.521,11.792,26.706,11.792,26.706L18.744,148.987z"/>
<g style="opacity:0.54;">
	<path style="fill:#EEBF00;" d="M301.245,122.395c-13.035,0.521-6.778-35.977-19.292-33.892
		c-12.514,2.086-28.678-10.428-14.6-19.814c14.078-9.385-1.564-16.685-18.771-27.113c-16.481-9.988-26.744,4.887-39.494,5.244
		c13.004,7.818,21.585,14.137,9.986,21.869c-14.078,9.385,2.086,21.899,14.6,19.814c12.514-2.086,6.257,34.413,19.292,33.892
		c12.937-0.517,11.811,26.285,11.793,26.687l48.279,0.019C313.037,149.101,314.28,121.874,301.245,122.395z"/>
	<path style="fill:#EEBF00;" d="M159.112,46.791c13.557,1.043,23.985-15.642,41.192-5.214c0.391,0.237,0.78,0.47,1.169,0.704
		c-1.396-6.366,2.434-18.648-12.534-31.989c-19.089-17.014-35.534-10.899-44.658,3.6C159.753,31.148,146.429,45.815,159.112,46.791z
		"/>
</g>
<path style="fill:#EEBF00;" d="M79.841,133.905c-0.648,0-1.305-0.081-1.959-0.25c-4.183-1.078-6.698-5.344-5.619-9.527
	c0.219-0.85,5.582-20.869,23.459-24.022c5.524-0.975,9.362-0.921,12.166-0.882c1.089,0.017,2.444,0.033,2.819-0.07
	c-0.009-0.001,0.527-0.303,1.713-1.737c0.506-0.612,1.044-1.285,1.617-2.002c6.569-8.208,20.237-25.291,42.081-18.212
	c6.917,2.24,11.843,5.202,15.802,7.581c7.116,4.277,10.061,6.045,20.432,2.077c4.035-1.541,8.556,0.474,10.1,4.509
	c1.543,4.034-0.474,8.556-4.509,10.101c-17.487,6.691-25.923,1.623-34.081-3.281c-3.614-2.172-7.351-4.417-12.566-6.107
	c-10.69-3.462-17.67,3.887-25.048,13.104c-0.63,0.788-1.223,1.529-1.78,2.2c-5.858,7.078-10.665,7.563-16.803,7.477
	c-2.419-0.033-5.16-0.072-9.226,0.644c-7.82,1.38-11.003,12.416-11.032,12.527C86.497,131.563,83.322,133.905,79.841,133.905z"/>
<polygon style="fill:#52A2E7;" points="256.669,277.838 248.331,190.841 494.859,190.841 464.083,511.941 279.106,511.941 
	262.919,343.052 "/>
<polygon style="fill:#FF6243;" points="435.567,20.107 418.563,3.103 361.786,60.058 361.787,60.058 361.787,154.878 
	385.835,154.878 385.835,70.018 "/>
<path style="fill:#3C66B1;" d="M395.22,190.811c0,0-23.624,32.858-23.624,132.369s78.535,71.812,78.535,188.761h-51.453
	c0-116.949-78.535-89.251-78.535-188.761s23.624-132.369,23.624-132.369L395.22,190.811L395.22,190.811z"/>
<polygon style="fill:#C6C3CB;" points="478.617,145.885 497.419,145.885 509.929,190.811 236.361,190.811 248.871,145.885 
	416.075,145.885 "/>
<polygon style="opacity:0.43;fill:#3C66B1;enable-background:new    ;" points="497.42,145.885 478.617,145.885 461.491,145.885 
	474.001,190.811 458.834,190.811 428.155,510.898 464.083,510.898 494.762,190.811 509.929,190.811 "/>
<g style="opacity:0.4;">
	<rect x="361.787" y="106.014" style="fill:#891C00;" width="24.047" height="39.878"/>
</g>
</svg>