<!DOCTYPE svg PUBLIC "-//W3C//DTD SVG 1.1//EN" "http://www.w3.org/Graphics/SVG/1.1/DTD/svg11.dtd">
<!-- Uploaded to: SVG Repo, www.svgrepo.com, Transformed by: SVG Repo Mixer Tools -->
<svg version="1.1" id="Layer_1" xmlns="http://www.w3.org/2000/svg" xmlns:xlink="http://www.w3.org/1999/xlink" viewBox="-51.2 -51.2 614.39 614.39" xml:space="preserve" width="800px" height="800px" fill="#000000" transform="matrix(-1, 0, 0, 1, 0, 0)rotate(0)">
<g id="SVGRepo_bgCarrier" stroke-width="0">
<path transform="translate(-51.2, -51.2), scale(19.1996875)" d="M16,28.448507462229045C18.299080351736407,28.18988357052311,20.11143661268966,26.64882220590015,22.187922821960548,25.628595856598523C24.580635836725566,24.45299986511956,27.70602859798272,24.249809174950684,29.13122425094194,21.99682918014526C30.576796233725254,19.71163784413492,30.10178860745458,16.695815331031294,29.507316188873183,14.057941121913132C28.943276223967313,11.555105952726247,27.400854054361904,9.50816149589544,25.855277991816514,7.4603530085079015C24.202453875935614,5.270446387486905,22.856572043535827,2.378308955949625,20.193634238925654,1.717793387921862C17.535571554599294,1.0584870455988418,14.964111617715119,2.914793011952206,12.521412402378491,4.153018609422C10.45618276197448,5.199901577798103,8.878862910303846,6.791565208942632,7.148758075258103,8.330355213079189C5.135424467575833,10.121054578653618,2.435548833399918,11.379858430249463,1.5391691684497175,13.920846413289787C0.5885922693424537,16.615468538303613,0.8403493133191697,19.791244526926985,2.2237440814689133,22.291405272396428C3.574853551306469,24.733217932883694,6.299867210510209,25.99053863139034,8.847669883011521,27.129242899581072C11.10675161373506,28.13890743786383,13.541064889180412,28.725113439628757,16,28.448507462229045" fill="#7ed0ec" strokewidth="0"/>
</g>
<g id="SVGRepo_tracerCarrier" stroke-linecap="round" stroke-linejoin="round"/>
<g id="SVGRepo_iconCarrier"> <g> <path style="fill:#E66032;" d="M502.194,498.768L502.194,498.768c-13.165,13.292-34.602,13.394-47.895,0.229l-44.931-44.5 l47.666-48.123l44.931,44.5C515.249,464.039,515.351,485.476,502.194,498.768z"/> <rect x="336.18" y="312.801" transform="matrix(-0.7037 0.7105 -0.7105 -0.7037 891.791 363.7596)" style="fill:#E66032;" width="67.732" height="110.064"/> </g> <g> <rect x="387.306" y="401.539" transform="matrix(-0.7037 0.7105 -0.7105 -0.7037 1014.8741 413.7077)" style="fill:#FCB641;" width="67.732" height="33.866"/> <ellipse style="fill:#FCB641;" cx="195.745" cy="198.935" rx="195.745" ry="195.745"/> </g> <ellipse style="fill:#FFFFFF;" cx="195.745" cy="198.935" rx="138.35" ry="138.35"/> <ellipse transform="matrix(-0.0048 -1 1 -0.0048 -8.2204 401.4799)" style="fill:#FEF0D9;" cx="195.669" cy="204.83" rx="67.047" ry="107.381"/> <g> <ellipse style="fill:#E66032;" cx="196.688" cy="203.835" rx="33.765" ry="33.765"/> <rect x="405.179" y="25.242" transform="matrix(-1 0.0048 -0.0048 -1 852.8475 65.3701)" style="fill:#E66032;" width="42.333" height="16.933"/> <rect x="362.848" y="25.494" transform="matrix(-1 0.0048 -0.0048 -1 751.2543 66.1185)" style="fill:#E66032;" width="25.4" height="16.933"/> <rect x="465.662" y="278.954" transform="matrix(-1 0.0048 -0.0048 -1 975.0305 572.5002)" style="fill:#E66032;" width="42.333" height="16.933"/> <rect x="423.331" y="279.197" transform="matrix(-1 0.0048 -0.0048 -1 873.4372 573.2317)" style="fill:#E66032;" width="25.4" height="16.933"/> <rect x="42.95" y="407.979" transform="matrix(-1 0.0048 -0.0048 -1 130.2314 832.5792)" style="fill:#E66032;" width="42.333" height="16.933"/> <rect x="0.619" y="408.223" transform="matrix(-1 0.0048 -0.0048 -1 28.638 833.3107)" style="fill:#E66032;" width="25.4" height="16.933"/> <rect x="263.334" y="457.72" transform="matrix(-1 0.0048 -0.0048 -1 571.2344 931.0026)" style="fill:#E66032;" width="42.333" height="16.933"/> <rect x="220.994" y="457.973" transform="matrix(-1 0.0048 -0.0048 -1 469.6242 931.7511)" style="fill:#E66032;" width="25.4" height="16.933"/> </g> </g>
</svg>